<svg width="28" height="37" viewBox="0 0 28 37" fill="none" xmlns="http://www.w3.org/2000/svg">
    <path fill-rule="evenodd" clip-rule="evenodd" d="M12.3081 0.101404C7.69377 0.661582 3.61261 3.5065 1.50695 7.63059C0.818604 8.97873 0.427026 10.1563 0.140481 11.7398C-0.0419048 12.7479 -0.0478212 15.1152 0.129306 16.2248C0.928241 21.2305 3.93699 26.7094 9.09946 32.5594C10.315 33.9369 13.1876 36.7669 13.5024 36.8971C13.8362 37.0351 14.1416 37.0343 14.4794 36.8947C14.7965 36.7635 17.6206 33.9783 18.8751 32.5594C23.4529 27.3816 26.4009 22.3677 27.5036 17.8845C28.5186 13.7576 27.9764 9.97786 25.8834 6.58961C25.1718 5.43774 23.8864 3.98976 22.7896 3.10471C19.8526 0.734885 16.0545 -0.353447 12.3081 0.101404ZM14.7943 6.20922C15.6963 6.31151 16.4654 6.52477 17.2367 6.88636C18.9755 7.70151 20.2232 8.93355 21.0368 10.6385C22.0476 12.7566 22.0216 15.1044 20.964 17.2339C20.5032 18.1616 20.0365 18.796 19.3283 19.4572C16.9871 21.643 13.5969 22.1931 10.7287 20.8524C9.84544 20.4396 9.25037 20.034 8.56574 19.3785C6.19136 17.1048 5.53544 13.5802 6.93924 10.6385C8.22208 7.95026 10.8658 6.23922 13.8785 6.14741C14.0392 6.14249 14.4513 6.17033 14.7943 6.20922Z" fill="#4F2B04"/>
    <circle cx="14" cy="14" r="10" fill="#fff"/>
</svg>